<?xml version="1.0" standalone="no"?>
<!DOCTYPE svg PUBLIC "-//W3C//DTD SVG 20010904//EN"
 "http://www.w3.org/TR/2001/REC-SVG-20010904/DTD/svg10.dtd">
<svg version="1.0" xmlns="http://www.w3.org/2000/svg"
 width="1600.000000pt" height="1600.000000pt" viewBox="0 0 1600.000000 1600.000000"
 preserveAspectRatio="xMidYMid meet">
<metadata>
Created by potrace 1.11, written by Peter Selinger 2001-2013
</metadata>
<g transform="translate(0.000000,1600.000000) scale(0.100000,-0.100000)"
fill="#000000" stroke="none">
<path d="M6339 15943 c-65 -71 -120 -152 -316 -469 -25 -40 -213 -372 -246
-434 -99 -186 -287 -571 -302 -620 -4 -14 -11 -27 -14 -30 -4 -3 -14 -23 -23
-45 -9 -22 -50 -124 -91 -228 -42 -103 -92 -235 -112 -295 -20 -59 -40 -116
-45 -127 -14 -35 -48 -138 -61 -185 -7 -25 -14 -49 -15 -55 -46 -160 -63 -226
-90 -345 -20 -92 -31 -145 -40 -195 -3 -16 -7 -41 -10 -55 -2 -14 -6 -43 -9
-65 -3 -22 -7 -51 -9 -64 -3 -13 -8 -46 -11 -75 -3 -28 -8 -67 -11 -86 -9 -63
-12 -513 -3 -580 4 -36 11 -90 14 -120 6 -54 11 -85 19 -125 2 -11 6 -41 10
-66 8 -52 13 -83 22 -119 3 -14 7 -34 9 -45 2 -11 9 -42 15 -70 6 -27 13 -57
15 -65 1 -8 8 -33 13 -55 6 -22 13 -51 16 -65 3 -14 14 -56 26 -95 11 -38 22
-79 24 -90 3 -23 38 -138 99 -330 22 -71 42 -134 43 -140 6 -28 143 -417 214
-605 17 -47 33 -89 34 -95 2 -5 8 -21 14 -35 6 -14 22 -54 36 -90 13 -36 45
-119 71 -185 26 -66 58 -149 72 -185 14 -36 31 -78 39 -95 7 -16 22 -55 34
-85 11 -30 25 -64 30 -75 5 -11 35 -83 66 -160 31 -77 61 -151 67 -165 6 -14
11 -27 12 -30 1 -3 7 -18 13 -33 7 -16 12 -30 12 -33 0 -2 10 -26 21 -52 33
-73 44 -99 89 -212 23 -58 53 -129 66 -158 13 -29 24 -55 24 -57 0 -5 85 -215
112 -275 6 -14 14 -34 18 -45 8 -23 32 -80 84 -207 20 -47 36 -90 36 -93 0 -4
6 -21 14 -38 31 -71 44 -104 61 -152 10 -27 21 -54 25 -60 4 -5 19 -46 35 -90
15 -44 38 -104 51 -133 13 -29 24 -56 24 -61 0 -5 8 -26 17 -47 9 -22 18 -43
19 -49 1 -5 24 -66 49 -135 26 -69 67 -183 92 -255 24 -71 48 -139 53 -150 8
-19 33 -94 35 -105 0 -3 21 -70 47 -150 50 -157 81 -259 84 -275 1 -5 16 -60
33 -121 29 -106 34 -129 46 -191 3 -16 10 -40 16 -54 5 -14 9 -30 8 -35 -1 -5
0 -16 4 -24 10 -25 48 -226 62 -325 3 -19 8 -52 11 -73 3 -20 7 -57 10 -82 2
-25 7 -72 10 -105 14 -133 7 -533 -11 -670 -3 -22 -8 -60 -10 -85 -2 -25 -4
-45 -5 -45 -1 0 -3 -16 -5 -36 -4 -52 -24 -170 -70 -424 -26 -138 -125 -538
-153 -615 -3 -8 -7 -24 -9 -35 -2 -11 -14 -54 -27 -95 -21 -65 -44 -142 -52
-175 -6 -25 -147 -434 -161 -465 -8 -19 -16 -42 -18 -50 -3 -16 -146 -380
-171 -437 -8 -18 -20 -48 -28 -65 -27 -65 -79 -184 -108 -248 -17 -36 -48
-105 -71 -155 -47 -105 -197 -403 -263 -525 -74 -135 -78 -141 -123 -220 -46
-79 -77 -129 -121 -195 -15 -22 -29 -44 -31 -50 -2 -5 -26 -48 -54 -94 -63
-107 -115 -223 -105 -234 4 -5 20 2 35 15 38 33 425 549 425 567 0 5 4 11 9
13 4 1 32 39 62 83 29 44 56 82 59 85 6 5 236 351 255 382 5 9 29 48 53 85 24
37 48 77 55 88 7 11 21 34 33 50 48 70 281 469 376 645 11 19 37 67 58 105 22
39 70 131 107 205 37 74 71 137 76 138 4 2 7 9 7 16 0 6 17 48 39 91 54 112
81 172 81 183 0 5 7 15 15 22 8 7 15 19 15 26 0 7 12 39 26 71 50 109 123 288
134 328 2 6 15 39 30 75 15 36 27 67 28 70 1 6 2 8 32 100 12 36 25 72 28 80
3 8 6 20 7 25 2 6 16 55 33 110 29 97 60 208 67 243 2 9 11 51 20 92 23 105
24 108 36 175 6 33 13 78 15 100 2 22 6 49 9 60 28 134 23 609 -10 865 -14
106 -26 188 -31 214 -3 16 -7 40 -9 55 -2 14 -6 37 -9 51 -3 13 -8 42 -12 64
-3 22 -7 44 -10 47 -2 4 -6 24 -10 45 -3 22 -12 68 -21 104 -8 36 -16 72 -18
80 -2 8 -4 15 -5 15 -1 0 -3 12 -5 26 -2 14 -9 45 -15 70 -7 24 -14 51 -15 59
-7 29 -56 215 -61 230 -3 8 -5 16 -5 17 0 2 -5 17 -10 35 -6 18 -12 40 -14 48
-4 18 -94 307 -126 405 -13 39 -23 72 -24 75 -1 3 -5 12 -8 20 -17 40 -35 100
-30 100 3 0 1 6 -4 12 -6 7 -22 47 -36 88 -14 42 -32 94 -40 115 -9 22 -34 92
-57 155 -23 63 -48 129 -55 145 -19 42 -36 87 -40 105 -4 16 -236 595 -259
645 -8 17 -42 98 -76 180 -55 133 -84 202 -137 325 -9 19 -21 49 -28 65 -21
49 -76 177 -95 220 -10 22 -61 144 -115 270 -54 127 -102 234 -106 240 -5 5
-9 15 -9 22 0 7 -12 38 -26 68 -14 31 -61 143 -105 248 -45 106 -87 207 -95
224 -8 18 -20 48 -28 65 -21 49 -167 411 -170 423 -2 6 -9 24 -16 40 -34 82
-148 391 -181 490 -11 33 -24 69 -29 80 -6 11 -12 29 -13 40 -2 11 -7 29 -11
40 -10 25 -18 52 -45 140 -49 165 -60 205 -81 290 -11 50 -25 106 -31 125 -5
19 -13 62 -19 95 -5 33 -12 71 -15 85 -6 28 -11 66 -22 155 -14 116 -5 596 13
688 2 12 6 47 9 77 8 85 14 130 21 169 3 20 7 52 9 71 1 19 5 49 9 65 3 17 8
46 10 65 4 28 52 273 72 365 2 11 6 31 9 45 2 14 21 88 41 165 19 77 37 145
38 150 1 6 8 28 14 50 29 101 55 191 56 200 3 13 71 227 101 320 57 170 151
432 182 505 3 8 7 17 8 20 1 3 7 18 13 33 7 16 12 31 12 34 0 3 6 19 14 36 8
18 31 73 51 122 20 50 48 113 61 142 13 28 24 54 24 57 0 3 18 44 41 93 23 48
54 115 69 148 15 33 42 89 59 124 23 48 28 68 19 78 -18 22 -33 15 -79 -34z"/>
<path d="M7998 15963 c-18 -16 -35 -31 -36 -36 -2 -4 -9 -13 -16 -20 -14 -13
-188 -274 -200 -297 -11 -23 -29 -53 -53 -87 -13 -17 -23 -34 -23 -37 0 -3
-16 -30 -35 -60 -19 -30 -35 -59 -35 -65 0 -5 -3 -11 -7 -13 -5 -1 -16 -19
-27 -38 -53 -99 -80 -147 -93 -168 -41 -66 -243 -464 -243 -479 0 -6 -6 -18
-12 -25 -7 -7 -23 -35 -35 -63 -11 -27 -51 -117 -88 -200 -84 -190 -162 -388
-231 -584 -50 -140 -130 -396 -139 -439 -1 -9 -10 -42 -19 -72 -8 -30 -18 -66
-20 -80 -3 -14 -15 -65 -27 -115 -11 -49 -22 -103 -25 -120 -2 -16 -9 -55 -15
-85 -6 -30 -13 -66 -15 -80 -2 -14 -5 -43 -8 -65 -3 -22 -8 -60 -11 -85 -2
-25 -7 -66 -10 -93 -4 -26 -8 -105 -10 -175 -2 -70 -5 -129 -6 -132 -1 -3 -1
-9 0 -13 1 -5 3 -59 6 -120 3 -106 9 -166 21 -247 4 -19 6 -42 6 -50 1 -8 6
-46 13 -85 7 -38 13 -77 13 -85 1 -8 12 -67 26 -130 15 -63 28 -124 31 -135 5
-22 12 -54 21 -87 3 -13 7 -33 9 -45 3 -22 21 -84 32 -113 4 -8 7 -22 8 -30 2
-23 35 -138 57 -200 4 -14 10 -34 12 -45 25 -122 422 -1230 506 -1410 5 -11
40 -99 79 -195 38 -96 90 -227 116 -290 26 -63 62 -153 81 -200 19 -47 39 -94
43 -105 38 -88 49 -114 210 -510 34 -82 65 -159 70 -170 8 -18 22 -53 26 -65
1 -3 7 -18 14 -35 7 -16 21 -50 31 -75 69 -174 84 -208 98 -235 9 -16 15 -30
13 -30 -3 0 13 -44 34 -95 18 -44 158 -408 197 -515 59 -159 72 -193 145 -405
69 -200 195 -603 207 -660 3 -14 17 -68 31 -120 15 -52 28 -106 31 -120 3 -14
9 -41 14 -60 5 -19 11 -46 14 -60 2 -14 7 -32 10 -40 5 -16 17 -81 21 -115 1
-11 5 -29 8 -40 7 -22 29 -168 41 -270 16 -130 20 -209 20 -375 0 -174 -10
-394 -19 -422 -2 -7 -6 -40 -10 -73 -7 -80 -14 -127 -26 -205 -6 -36 -12 -76
-14 -90 -3 -14 -7 -36 -9 -50 -3 -13 -8 -42 -12 -65 -3 -22 -17 -92 -31 -155
-14 -63 -29 -133 -34 -155 -5 -22 -11 -49 -13 -60 -14 -55 -28 -112 -31 -128
-15 -73 -171 -595 -202 -677 -8 -21 -14 -43 -15 -57 -1 -7 -5 -13 -10 -13 -4
0 -8 -9 -8 -20 0 -12 -7 -34 -15 -50 -9 -17 -15 -32 -14 -35 1 -6 -6 -25 -36
-105 -8 -19 -28 -75 -46 -125 -18 -49 -36 -94 -41 -100 -4 -5 -8 -15 -8 -23 0
-7 -10 -34 -21 -60 -12 -25 -22 -51 -23 -57 -1 -5 -7 -19 -13 -30 -6 -11 -11
-22 -11 -25 -1 -8 -14 -42 -39 -99 -12 -29 -23 -58 -23 -64 0 -6 -7 -18 -15
-27 -8 -9 -16 -25 -18 -36 -5 -23 -14 -45 -64 -154 -22 -47 -55 -119 -73 -160
-130 -292 -445 -868 -590 -1081 -21 -30 -92 -168 -114 -221 -8 -22 -11 -40 -5
-43 15 -10 72 54 193 215 63 85 119 160 124 166 12 14 149 205 221 309 30 44
115 170 188 280 73 110 137 205 143 212 5 7 10 15 10 17 0 3 17 32 37 63 56
86 62 96 69 115 3 10 9 18 13 18 4 0 20 25 36 55 17 30 33 55 38 55 4 0 7 4 7
10 0 5 18 39 40 75 22 36 40 68 40 72 0 3 6 14 14 22 7 9 24 36 37 61 13 25
26 47 29 50 3 3 11 16 18 30 7 14 23 43 35 65 139 243 324 604 427 830 12 28
34 75 48 105 14 30 27 57 27 60 3 11 18 47 35 86 30 66 138 346 145 374 2 8
19 60 38 115 34 99 84 258 92 292 3 10 16 62 29 116 14 54 27 112 30 130 3 18
10 47 15 65 5 18 10 35 10 37 0 8 13 98 18 120 2 11 6 38 9 60 3 22 7 51 10
65 22 133 21 609 -1 745 -3 17 -8 53 -10 80 -8 79 -27 219 -40 290 -9 50 -64
323 -69 345 -11 47 -18 80 -17 85 0 2 -5 19 -10 37 -6 18 -12 42 -14 53 -11
46 -15 66 -45 175 -18 63 -33 122 -35 130 -2 8 -8 26 -13 40 -5 14 -10 30 -11
35 -3 19 -42 150 -63 209 -11 32 -21 63 -22 70 -15 78 -307 889 -399 1106 -6
14 -11 27 -11 30 -2 9 -142 350 -191 465 -7 17 -41 98 -75 180 -34 83 -67 164
-74 180 -13 29 -30 69 -60 138 -8 17 -33 77 -56 132 -23 55 -53 124 -66 153
-13 29 -24 55 -24 57 0 3 -15 38 -33 77 -19 40 -39 90 -46 110 -7 21 -17 40
-22 44 -5 3 -7 10 -4 15 4 5 1 9 -4 9 -6 0 -10 3 -9 8 1 4 -8 29 -20 56 -12
27 -22 50 -22 51 0 2 -10 25 -22 52 -12 26 -22 50 -23 53 -4 11 -100 238 -120
285 -8 17 -32 75 -55 130 -23 55 -47 114 -55 130 -7 17 -34 82 -59 145 -26 63
-53 129 -60 145 -20 46 -68 168 -70 180 -1 5 -7 19 -12 30 -6 11 -42 103 -79
205 -37 102 -71 194 -75 205 -12 30 -23 59 -25 65 -1 3 -29 90 -63 195 -34
104 -62 195 -62 202 0 7 -4 21 -9 31 -17 30 -81 294 -105 432 -3 14 -5 25 -6
25 -1 0 -3 14 -5 30 -2 17 -5 39 -8 50 -29 120 -30 509 -2 800 1 17 3 30 4 30
1 0 4 27 6 60 2 33 6 70 9 83 3 13 8 51 11 85 4 34 8 64 10 67 2 4 6 28 10 56
4 40 39 230 60 334 3 14 7 37 10 52 3 14 14 66 26 115 12 48 23 95 24 103 2 8
8 30 14 48 5 18 10 36 11 40 3 20 14 64 32 127 11 39 22 77 23 85 2 8 4 15 5
15 1 0 3 10 5 21 3 12 16 58 31 104 14 45 27 90 29 99 24 108 299 862 375
1026 5 11 18 40 28 65 42 98 98 221 154 340 78 163 79 165 65 179 -16 16 -22
14 -59 -16z"/>
<path d="M9565 15963 c-43 -39 -93 -104 -155 -203 -30 -47 -57 -87 -60 -90 -3
-3 -10 -14 -17 -25 -7 -11 -38 -63 -70 -115 -72 -118 -73 -120 -158 -271 -38
-68 -78 -137 -87 -154 -57 -98 -296 -588 -362 -738 -165 -380 -313 -796 -380
-1067 -2 -8 -11 -42 -20 -75 -8 -33 -18 -75 -21 -94 -3 -19 -8 -37 -10 -40 -2
-4 -6 -26 -10 -51 -4 -25 -9 -48 -11 -52 -6 -10 -34 -170 -39 -223 -3 -37 -8
-72 -21 -165 -23 -167 -23 -496 2 -700 3 -25 6 -56 8 -70 2 -14 6 -41 9 -60
12 -60 17 -94 23 -135 3 -22 9 -53 14 -70 5 -16 12 -48 15 -70 4 -22 8 -48 11
-57 3 -9 7 -27 9 -40 8 -41 45 -192 60 -243 41 -142 108 -372 112 -390 3 -11
10 -26 16 -32 5 -7 7 -13 3 -13 -3 0 0 -16 8 -35 8 -19 12 -35 9 -35 -3 0 -1
-6 5 -12 5 -7 13 -29 17 -48 4 -19 11 -41 16 -50 4 -8 26 -71 49 -140 23 -69
45 -134 50 -145 11 -26 92 -247 94 -260 2 -5 7 -21 13 -35 14 -33 25 -61 133
-340 50 -129 94 -244 99 -255 5 -11 37 -90 71 -175 34 -85 67 -168 75 -185 7
-16 28 -66 45 -110 17 -44 38 -96 47 -115 8 -19 19 -45 24 -57 5 -13 13 -33
19 -45 9 -22 31 -77 35 -88 4 -13 20 -50 41 -98 13 -29 24 -56 24 -60 1 -4 9
-25 20 -47 11 -22 19 -44 20 -48 0 -5 7 -24 15 -43 35 -79 47 -108 120 -289
42 -104 82 -203 89 -220 11 -25 36 -87 77 -192 5 -13 13 -33 19 -45 37 -86
250 -647 325 -857 48 -134 177 -525 204 -616 58 -198 73 -252 107 -385 20 -80
37 -152 38 -160 1 -8 5 -26 9 -40 6 -24 14 -63 23 -120 2 -14 8 -47 14 -75 10
-48 13 -67 25 -152 3 -20 7 -48 9 -62 8 -49 28 -285 27 -311 -1 -8 -1 -28 0
-45 2 -35 1 -110 0 -110 -1 0 -3 -61 -6 -135 -3 -74 -7 -148 -9 -165 -2 -16
-7 -59 -11 -95 -3 -36 -8 -76 -10 -90 -3 -14 -7 -47 -10 -75 -3 -27 -7 -59 -9
-70 -2 -11 -8 -45 -12 -75 -4 -30 -9 -57 -9 -60 -1 -3 -5 -27 -10 -55 -5 -27
-10 -52 -10 -55 -5 -18 -19 -88 -20 -100 -1 -8 -5 -26 -8 -40 -4 -14 -24 -101
-47 -195 -22 -93 -49 -204 -61 -245 -11 -41 -22 -82 -24 -90 -2 -8 -16 -53
-30 -100 -15 -47 -28 -94 -31 -105 -2 -11 -35 -114 -74 -230 -39 -115 -72
-215 -73 -222 -2 -7 -6 -16 -10 -19 -4 -4 -7 -13 -7 -20 0 -7 -5 -25 -12 -41
-6 -15 -12 -30 -13 -33 -1 -3 -5 -14 -9 -25 -4 -11 -12 -33 -18 -50 -5 -16
-14 -39 -18 -50 -21 -49 -92 -231 -94 -240 -6 -21 -148 -356 -191 -450 -18
-38 -42 -92 -55 -120 -124 -275 -381 -761 -492 -928 -21 -32 -38 -63 -38 -68
0 -5 -4 -9 -10 -9 -5 0 -10 -7 -10 -15 0 -8 -4 -15 -9 -15 -5 0 -11 -8 -14
-18 -4 -9 -18 -37 -33 -62 -34 -58 -106 -199 -108 -214 -1 -6 -5 -17 -9 -24
-5 -7 -3 -12 5 -12 26 0 98 86 281 334 12 16 32 42 45 57 12 15 22 31 22 37 0
6 4 12 8 14 4 2 23 26 42 53 19 28 38 52 41 55 6 5 97 136 139 200 14 21 33
48 42 61 10 13 40 58 67 99 28 41 54 80 58 85 4 6 14 22 22 37 8 16 18 28 23
28 4 0 8 4 8 9 0 5 22 42 48 83 119 180 412 663 412 679 0 5 5 9 12 9 6 0 9 2
6 6 -3 3 16 43 43 90 27 47 49 89 49 94 0 4 5 10 11 12 5 2 11 10 12 18 2 8
10 26 18 40 33 52 240 462 303 600 56 120 138 310 140 320 1 4 34 87 86 215 4
11 15 40 24 65 8 25 21 59 27 75 7 17 13 37 15 46 2 9 9 29 15 45 11 27 15 37
22 66 2 7 18 60 36 117 18 57 35 112 37 122 6 28 10 45 38 159 14 58 28 116
30 130 3 14 10 50 16 80 6 30 14 73 16 95 3 22 11 85 19 140 13 96 14 604 2
680 -3 17 -8 57 -11 90 -4 33 -9 80 -13 105 -3 25 -7 59 -9 75 -1 17 -3 30 -4
30 -1 0 -3 9 -4 20 -2 17 -16 104 -22 140 -1 6 -3 12 -4 15 -1 3 -3 16 -6 30
-2 14 -8 45 -13 70 -6 25 -13 63 -17 85 -4 22 -8 45 -10 50 -2 6 -5 20 -8 33
-3 13 -7 31 -10 40 -3 9 -8 29 -11 45 -3 15 -7 39 -10 55 -3 15 -9 36 -12 47
-4 11 -8 27 -9 35 -3 18 -36 140 -71 260 -13 47 -26 90 -27 95 -10 41 -93 308
-103 335 -3 8 -7 20 -8 25 -3 14 -62 185 -90 265 -13 36 -38 106 -55 155 -17
50 -35 99 -40 110 -5 11 -36 94 -70 185 -62 166 -201 519 -225 575 -8 17 -48
113 -90 215 -102 246 -264 631 -274 650 -5 9 -34 76 -66 150 -72 170 -79 186
-101 235 -10 22 -19 42 -19 45 -2 7 -15 39 -38 90 -10 25 -25 60 -33 78 -8 17
-20 47 -28 65 -40 94 -112 262 -181 427 -42 102 -90 215 -106 252 -16 36 -29
73 -29 80 0 8 -4 18 -9 23 -5 6 -34 75 -66 155 -31 80 -61 155 -66 168 -28 69
-43 110 -109 292 -42 115 -47 131 -48 140 0 3 -10 30 -22 60 -12 30 -23 62
-25 70 -2 8 -12 41 -23 73 -11 31 -18 57 -16 57 2 0 -2 14 -11 30 -9 17 -13
30 -11 30 3 0 1 12 -5 28 -31 77 -124 463 -144 597 -30 198 -34 467 -11 730 9
97 17 175 26 245 6 42 13 93 15 115 3 21 7 50 10 64 2 14 7 44 10 66 4 22 10
58 15 80 4 22 8 47 8 55 0 8 10 60 22 115 12 55 24 111 27 125 9 47 11 55 13
55 1 0 3 11 5 25 5 36 92 373 116 450 11 36 22 74 25 85 6 31 72 239 115 365
22 63 42 122 44 130 2 8 15 47 30 85 15 39 28 78 30 87 2 9 9 26 15 38 6 12
13 29 15 38 7 33 169 431 236 577 12 28 23 52 24 55 6 18 31 72 89 195 37 76
65 146 64 154 -5 26 -31 23 -63 -6z"/>
</g>
</svg>
