<svg id="Lager_1" data-name="Lager 1" xmlns="http://www.w3.org/2000/svg" viewBox="0 0 38.6 100.18"><defs><style>.cls-1{fill:#cd1626;}.cls-2{fill:#005695;}.cls-3{fill:#00803d;}</style></defs><title>Rityta 1</title><path class="cls-1" d="M8.43.85c1-1.43,1-.61,1-.61S3.33,12,3.33,22.73s17.18,36,15,50.73C16.58,85.17,4.92,99.78,4.92,99.78c-1.23,1.36.15-1.11.4-1.49,4.06-6.1,9.81-20,9.15-28.8C13.58,57.62,1.2,37.08.07,25.06-.75,16.29,5.52,5.1,8.43.85Z"/><path class="cls-2" d="M18.71.85c1-1.43,1-.61,1-.61S13.6,12,13.6,22.73s17.18,36,15,50.73C26.86,85.17,15.2,99.78,15.2,99.78c-1.23,1.36.15-1.11.4-1.49,4.06-6.1,9.81-20,9.15-28.8-.89-11.86-13.27-32.41-14.4-44.42C9.53,16.29,15.8,5.1,18.71.85Z"/><path class="cls-3" d="M28.52.85c1-1.43,1-.61,1-.61S23.42,12,23.42,22.73s17.18,36,15,50.73C36.67,85.17,25,99.78,25,99.78c-1.23,1.36.15-1.11.4-1.49,4.06-6.1,9.81-20,9.15-28.8-.89-11.86-13.27-32.41-14.4-44.42C19.34,16.29,25.61,5.1,28.52.85Z"/></svg>